<?xml version="1.0" standalone="no"?>
<!DOCTYPE svg PUBLIC "-//W3C//DTD SVG 20010904//EN"
 "http://www.w3.org/TR/2001/REC-SVG-20010904/DTD/svg10.dtd">
<svg version="1.0" xmlns="http://www.w3.org/2000/svg"
 width="448.000000pt" height="448.000000pt" viewBox="0 0 448.000000 448.000000"
 preserveAspectRatio="xMidYMid meet">
<metadata>
Created by potrace 1.14, written by Peter Selinger 2001-2017
</metadata>
<g transform="translate(0.000000,448.000000) scale(0.100000,-0.100000)"
fill="#000000" stroke="none">
<path d="M2751 2584 c-120 -25 -209 -94 -259 -203 -23 -48 -26 -69 -26 -146 1
-75 5 -100 27 -147 72 -161 250 -236 462 -197 62 11 184 62 186 76 1 11 1 231
0 264 l-1 27 -100 0 -100 1 0 -89 0 -89 -36 -7 c-49 -9 -113 1 -142 23 -47 35
-64 81 -59 156 4 60 8 72 36 101 66 68 168 69 247 3 l30 -25 64 55 c36 31 68
61 73 69 10 18 -46 69 -108 98 -88 41 -190 51 -294 30z m163 -28 c62 -5 183
-56 193 -82 3 -8 -9 -25 -27 -41 -18 -14 -39 -33 -46 -41 -13 -12 -18 -11 -42
4 -50 34 -81 43 -146 40 -56 -2 -71 -7 -103 -32 -53 -42 -77 -96 -76 -169 0
-70 27 -133 70 -163 34 -24 95 -42 126 -37 12 2 37 6 56 9 18 2 37 8 42 13 5
5 10 44 11 88 l3 79 65 0 65 0 3 -121 3 -121 -48 -22 c-109 -51 -261 -60 -364
-21 -77 29 -132 80 -169 154 -87 178 -1 386 183 446 65 21 102 28 127 24 8 -1
41 -4 74 -7z"/>
<path d="M2 2253 c0 -181 1 -335 4 -343 3 -13 24 -16 114 -16 l110 0 0 154 0
154 128 -154 129 -153 96 -1 97 0 0 343 0 343 -115 0 -114 0 -3 -150 -3 -151
-125 151 -124 150 -97 0 -96 0 -1 -327z"/>
<path d="M2059 2533 c0 -10 -1 -44 -2 -76 -1 -55 -2 -57 -27 -55 -14 1 -30 -1
-36 -4 -8 -5 -12 -128 -5 -158 0 -3 16 -5 34 -5 l32 0 2 -97 c2 -149 40 -212
146 -243 78 -22 235 -2 224 29 -2 6 -15 41 -28 79 -18 51 -27 66 -39 61 -55
-24 -80 7 -80 102 l0 72 55 -2 55 -1 0 85 0 85 -55 -1 -55 -2 0 74 0 74 -110
0 c-98 0 -110 -2 -111 -17z"/>
<path d="M955 2426 c-120 -38 -193 -125 -201 -239 -12 -177 128 -307 326 -301
102 3 156 20 210 63 l25 20 -59 60 -59 60 -38 -20 c-60 -30 -147 -19 -170 22
-9 18 -3 19 176 19 l185 0 0 53 c0 114 -47 193 -146 243 -51 26 -73 31 -135
32 -41 1 -92 -5 -114 -12z m138 -145 c12 -2 47 -40 47 -51 0 -6 -33 -10 -80
-10 -84 0 -99 10 -62 42 26 23 47 27 95 19z"/>
<path d="M3394 2422 c-118 -41 -188 -138 -187 -261 1 -109 51 -189 151 -240
95 -48 244 -48 340 1 72 36 73 42 7 108 l-58 58 -39 -20 c-52 -28 -120 -21
-156 16 l-27 26 188 0 c208 0 191 -6 189 70 -3 99 -61 188 -149 230 -65 31
-187 36 -259 12z m236 -39 c81 -37 133 -111 139 -199 l2 -41 -178 -1 c-98 0
-186 -1 -196 -1 -16 -1 -16 -3 2 -38 10 -21 27 -45 37 -54 37 -33 134 -40 183
-15 22 12 27 10 59 -26 19 -21 33 -40 31 -42 -31 -28 -108 -48 -181 -47 -95 1
-155 21 -214 73 -100 88 -98 264 5 349 81 66 216 85 311 42z"/>
<path d="M3443 2299 c-31 -20 -65 -90 -50 -105 3 -3 58 -7 122 -7 l117 -2 -7
40 c-7 45 -18 61 -56 81 -39 20 -88 17 -126 -7z m128 -35 c38 -34 24 -44 -61
-44 -81 0 -90 4 -67 32 30 39 92 44 128 12z"/>
<path d="M4156 2425 c-21 -7 -43 -18 -49 -24 -17 -17 -27 -13 -27 9 0 19 -7
20 -105 20 l-105 0 0 -268 0 -268 110 0 c69 0 110 4 110 11 0 5 2 74 3 152 2
135 3 143 27 168 19 20 32 25 59 23 54 -5 61 -28 61 -203 l0 -151 106 1 c92 0
108 2 113 17 11 31 4 324 -9 378 -29 120 -163 182 -294 135z m181 -38 c74 -39
93 -101 93 -304 l0 -153 -30 -1 c-16 0 -46 -1 -65 -1 -19 0 -41 1 -49 1 -11 1
-14 30 -14 141 -1 155 -12 191 -59 207 -32 11 -53 10 -94 -7 -45 -19 -59 -70
-59 -215 l0 -124 -27 -3 c-16 -2 -51 -1 -79 0 l-51 4 -1 232 0 232 71 -1 72 0
5 -43 5 -43 35 32 c71 66 172 84 247 46z"/>
<path d="M1357 2418 c86 -109 183 -253 179 -264 -3 -8 -46 -68 -96 -133 -49
-65 -90 -120 -90 -123 0 -2 54 -4 120 -3 l119 0 37 53 c20 28 40 52 43 52 3 0
20 -24 38 -53 l31 -52 126 -1 c69 0 126 2 126 5 0 4 -43 65 -95 136 -53 71
-93 135 -91 141 3 7 42 61 88 120 46 60 87 115 92 122 5 9 -19 12 -111 12
l-118 0 -39 -56 -39 -56 -36 56 -36 56 -129 0 c-101 0 -126 -3 -119 -12z"/>
</g>
</svg>
